<?xml version="1.0" standalone="no"?>
<!DOCTYPE svg PUBLIC "-//W3C//DTD SVG 20010904//EN"
 "http://www.w3.org/TR/2001/REC-SVG-20010904/DTD/svg10.dtd">
<svg version="1.0" xmlns="http://www.w3.org/2000/svg"
 width="225.000000pt" height="225.000000pt" viewBox="0 0 225.000000 225.000000"
 preserveAspectRatio="xMidYMid meet">

<g transform="translate(0.000000,225.000000) scale(0.100000,-0.100000)"
fill="#000000" stroke="none">
<path d="M985 2239 c-492 -67 -880 -435 -966 -919 -17 -96 -17 -294 0 -390 27
-148 87 -299 172 -430 55 -84 225 -254 309 -309 195 -127 393 -185 625 -185
232 0 430 58 625 185 84 55 254 225 309 309 127 195 185 393 185 625 0 232
-58 430 -185 625 -55 84 -225 254 -309 309 -128 83 -268 140 -410 167 -98 19
-267 25 -355 13z m33 -793 l115 -178 94 143 c51 79 103 161 115 182 l22 37 98
0 c54 0 98 -2 98 -5 0 -3 -72 -117 -160 -254 -88 -137 -160 -253 -160 -259 0
-6 69 -118 153 -249 84 -131 156 -244 161 -250 5 -10 -15 -13 -92 -13 l-100 0
-112 175 c-61 96 -115 173 -120 170 -4 -2 -56 -81 -116 -175 l-109 -170 -97 0
c-54 0 -98 2 -98 5 0 2 70 113 156 247 86 133 158 247 161 253 2 6 -67 120
-152 254 -86 134 -159 250 -162 257 -5 12 11 14 92 12 l98 -3 115 -179z"/>
</g>
</svg>
