<?xml version="1.0" standalone="no"?>
<!DOCTYPE svg PUBLIC "-//W3C//DTD SVG 20010904//EN"
 "http://www.w3.org/TR/2001/REC-SVG-20010904/DTD/svg10.dtd">
<svg version="1.0" xmlns="http://www.w3.org/2000/svg"
 width="296.000000pt" height="60.000000pt" viewBox="0 0 296.000000 60.000000"
 preserveAspectRatio="xMidYMid meet">

<g transform="translate(0.000000,60.000000) scale(0.100000,-0.100000)"
fill="#000000" stroke="none">
<path d="M227 590 c-56 -14 -88 -34 -137 -82 -62 -62 -84 -116 -84 -208 0 -92
22 -146 85 -209 63 -63 117 -85 209 -85 92 0 146 22 209 85 63 63 85 117 85
209 0 54 -6 87 -20 120 -26 57 -96 127 -151 152 -50 22 -144 31 -196 18z m39
-200 l31 -51 33 51 c24 37 38 50 56 50 13 0 24 -2 24 -5 0 -2 -16 -29 -35 -60
-20 -30 -38 -62 -41 -70 -3 -8 13 -44 35 -80 l41 -65 -27 0 c-23 0 -34 9 -56
47 l-29 47 -29 -47 c-22 -36 -35 -47 -55 -47 -14 0 -23 3 -21 8 2 4 21 35 41
68 l37 62 -36 56 c-50 78 -52 86 -23 86 17 0 31 -13 54 -50z"/>
<path d="M2390 534 c0 -4 29 -51 65 -105 l65 -99 -65 -99 c-36 -54 -65 -101
-65 -105 0 -3 17 -6 38 -6 35 0 40 4 82 70 25 38 47 70 50 70 3 0 25 -32 50
-70 42 -66 47 -70 83 -70 20 0 37 3 37 6 0 4 -29 51 -65 105 l-65 99 65 99
c36 54 65 101 65 105 0 3 -17 6 -38 6 -36 0 -39 -3 -81 -70 -23 -38 -46 -70
-51 -70 -5 0 -28 32 -51 70 -42 67 -45 70 -81 70 -21 0 -38 -3 -38 -6z"/>
<path d="M1472 460 c5 -70 2 -80 -19 -59 -6 6 -28 11 -48 11 -106 0 -151 -178
-65 -255 35 -31 74 -35 109 -11 17 12 26 13 34 5 6 -6 24 -11 39 -11 l28 0 0
195 0 195 -41 0 -42 0 5 -70z m-21 -110 c16 -9 19 -22 19 -73 0 -68 -10 -87
-47 -87 -35 0 -57 41 -50 97 7 62 35 85 78 63z"/>
<path d="M845 409 c-72 -22 -99 -69 -96 -167 2 -49 54 -102 108 -109 40 -5
103 11 103 26 -1 3 -7 17 -14 30 -8 15 -16 20 -20 12 -8 -12 -55 -15 -72 -3
-40 26 -45 102 -9 137 26 27 37 30 63 16 13 -7 22 -3 35 15 17 22 17 24 0 32
-31 16 -67 20 -98 11z"/>
<path d="M1075 404 c-22 -7 -41 -14 -42 -14 -1 0 -11 -15 -22 -34 -27 -44 -28
-119 -1 -163 59 -97 200 -73 231 40 31 115 -60 209 -166 171z m75 -64 c25 -25
27 -95 4 -128 -17 -25 -56 -29 -73 -9 -28 34 -26 111 5 141 21 21 40 20 64 -4z"/>
<path d="M1706 409 c-123 -33 -130 -226 -10 -268 66 -23 142 -1 129 38 -5 17
-12 20 -28 15 -40 -13 -81 -6 -99 17 -10 11 -18 25 -18 30 0 5 38 9 85 9 l85
0 0 30 c0 90 -66 150 -144 129z m60 -57 c6 -4 14 -17 18 -29 7 -22 5 -23 -48
-23 -60 0 -69 10 -39 42 16 18 49 23 69 10z"/>
<path d="M2033 410 c-12 -5 -28 -18 -35 -30 -17 -27 -28 -25 -28 5 0 21 -5 25
-30 25 l-30 0 0 -135 0 -135 35 0 35 0 0 79 c0 92 21 131 70 131 23 0 28 5 32
30 3 19 0 31 -10 35 -7 3 -14 5 -15 4 -1 0 -12 -4 -24 -9z"/>
<path d="M2172 409 c-22 -7 -38 -20 -48 -42 -23 -49 -7 -79 60 -111 40 -19 56
-32 56 -46 0 -27 -40 -35 -78 -16 -30 15 -32 15 -46 -6 -15 -22 -15 -23 21
-41 51 -27 119 -19 150 18 44 51 25 97 -56 135 -34 16 -51 29 -49 39 4 20 50
26 77 11 17 -8 22 -6 32 12 10 18 8 24 -7 35 -10 7 -26 13 -35 13 -10 0 -23 2
-31 4 -7 2 -28 0 -46 -5z"/>
</g>
</svg>
